HIERARCHY
ROOT Hips
{
  OFFSET 5.80788e-005 67.184 3.4734
  CHANNELS 6 Xposition Yposition Zposition Zrotation Xrotation Yrotation
  JOINT Chest
  {
    OFFSET 0 8.7983 -4.7612
    CHANNELS 3 Zrotation Xrotation Yrotation
    JOINT Chest2
    {
      OFFSET 0 8.0291 0.4195
      CHANNELS 3 Zrotation Xrotation Yrotation
      JOINT Chest3
      {
        OFFSET 0 9.9351 -2.2114
        CHANNELS 3 Zrotation Xrotation Yrotation
        JOINT Neck
        {
          OFFSET 0 22.3885 -0.4656
          CHANNELS 3 Zrotation Xrotation Yrotation
          JOINT Head
          {
            OFFSET -0.0001 12.643 3.4389
            CHANNELS 3 Zrotation Xrotation Yrotation
            End Site
            {
              OFFSET 0.0001 17.6655 0.5274
            }
          }
        }
        JOINT LeftCollar
        {
          OFFSET 2.2603 21.606 7.4023
          CHANNELS 3 Zrotation Xrotation Yrotation
          JOINT LeftShoulder
          {
            OFFSET 13.5163 -1.1332 -5.0146
            CHANNELS 3 Zrotation Xrotation Yrotation
            JOINT LeftElbow
            {
              OFFSET -0.0995 -28.05 -0.2431
              CHANNELS 3 Zrotation Xrotation Yrotation
              JOINT LeftWrist
              {
                OFFSET 0.0679 -23.3996 -0.1402
                CHANNELS 3 Zrotation Xrotation Yrotation
                JOINT LeftFinger1
                {
                  OFFSET 0.7932 -9.069 2.5189
                  CHANNELS 3 Zrotation Xrotation Yrotation
                  JOINT LeftFinger11
                  {
                    OFFSET -0.8272 -3.3923 0.5977
                    CHANNELS 3 Zrotation Xrotation Yrotation
                    JOINT LeftFinger12
                    {
                      OFFSET -0.5649 -2.3158 0.4082
                      CHANNELS 3 Zrotation Xrotation Yrotation
                      End Site
                      {
                        OFFSET -0.4919 -1.6479 0.2673
                      }
                    }
                  }
                }
                JOINT LeftFinger2
                {
                  OFFSET 0.9159 -9.2044 0.2193
                  CHANNELS 3 Zrotation Xrotation Yrotation
                  JOINT LeftFinger21
                  {
                    OFFSET 0.0117 -4.1944 -0.0248
                    CHANNELS 3 Zrotation Xrotation Yrotation
                    JOINT LeftFinger22
                    {
                      OFFSET 0.0071 -2.3249 -0.0142
                      CHANNELS 3 Zrotation Xrotation Yrotation
                      End Site
                      {
                        OFFSET -0.1475 -2.0882 0.0028
                      }
                    }
                  }
                }
                JOINT LeftFinger3
                {
                  OFFSET 0.6113 -8.7231 -2.0637
                  CHANNELS 3 Zrotation Xrotation Yrotation
                  JOINT LeftFinger31
                  {
                    OFFSET -0.1927 -3.8059 -0.2383
                    CHANNELS 3 Zrotation Xrotation Yrotation
                    JOINT LeftFinger32
                    {
                      OFFSET -0.1091 -2.1688 -0.1362
                      CHANNELS 3 Zrotation Xrotation Yrotation
                      End Site
                      {
                        OFFSET -0.2358 -1.9176 -0.0906
                      }
                    }
                  }
                }
                JOINT LeftFinger4
                {
                  OFFSET -0.6151 -8.0947 -3.5641
                  CHANNELS 3 Zrotation Xrotation Yrotation
                  JOINT LeftFinger41
                  {
                    OFFSET -0.4882 -2.341 -0.6462
                    CHANNELS 3 Zrotation Xrotation Yrotation
                    JOINT LeftFinger42
                    {
                      OFFSET -0.3575 -1.7167 -0.4742
                      CHANNELS 3 Zrotation Xrotation Yrotation
                      End Site
                      {
                        OFFSET -0.4187 -1.5237 -0.3496
                      }
                    }
                  }
                }
                JOINT LeftFinger0
                {
                  OFFSET -1.42 -1.8761 1.4223
                  CHANNELS 3 Zrotation Xrotation Yrotation
                  JOINT LeftFinger01
                  {
                    OFFSET -1.1471 -3.4929 2.6334
                    CHANNELS 3 Zrotation Xrotation Yrotation
                    JOINT LeftFinger02
                    {
                      OFFSET -0.823 -2.3 1.6571
                      CHANNELS 3 Zrotation Xrotation Yrotation
                      End Site
                      {
                        OFFSET -0.5822 -1.6914 1.1582
                      }
                    }
                  }
                }
              }
            }
          }
        }
        JOINT RightCollar
        {
          OFFSET -2.2603 21.606 7.4023
          CHANNELS 3 Zrotation Xrotation Yrotation
          JOINT RightShoulder
          {
            OFFSET -13.5187 -1.1334 -5.0155
            CHANNELS 3 Zrotation Xrotation Yrotation
            JOINT RightElbow
            {
              OFFSET 0.0994 -28.0499 -0.2431
              CHANNELS 3 Zrotation Xrotation Yrotation
              JOINT RightWrist
              {
                OFFSET -0.0679 -23.3996 -0.1402
                CHANNELS 3 Zrotation Xrotation Yrotation
                JOINT RightFinger1
                {
                  OFFSET -0.7932 -9.0691 2.5189
                  CHANNELS 3 Zrotation Xrotation Yrotation
                  JOINT RightFinger11
                  {
                    OFFSET 0.8272 -3.3923 0.5977
                    CHANNELS 3 Zrotation Xrotation Yrotation
                    JOINT RightFinger12
                    {
                      OFFSET 0.565 -2.3158 0.4082
                      CHANNELS 3 Zrotation Xrotation Yrotation
                      End Site
                      {
                        OFFSET 0.4919 -1.6479 0.2673
                      }
                    }
                  }
                }
                JOINT RightFinger2
                {
                  OFFSET -0.916 -9.2044 0.2193
                  CHANNELS 3 Zrotation Xrotation Yrotation
                  JOINT RightFinger21
                  {
                    OFFSET -0.0117 -4.1944 -0.0248
                    CHANNELS 3 Zrotation Xrotation Yrotation
                    JOINT RightFinger22
                    {
                      OFFSET -0.0071 -2.3249 -0.0142
                      CHANNELS 3 Zrotation Xrotation Yrotation
                      End Site
                      {
                        OFFSET 0.1475 -2.0882 0.0028
                      }
                    }
                  }
                }
                JOINT RightFinger3
                {
                  OFFSET -0.6113 -8.7231 -2.0637
                  CHANNELS 3 Zrotation Xrotation Yrotation
                  JOINT RightFinger31
                  {
                    OFFSET 0.1927 -3.8059 -0.2383
                    CHANNELS 3 Zrotation Xrotation Yrotation
                    JOINT RightFinger32
                    {
                      OFFSET 0.1091 -2.1688 -0.1362
                      CHANNELS 3 Zrotation Xrotation Yrotation
                      End Site
                      {
                        OFFSET 0.2358 -1.9176 -0.0906
                      }
                    }
                  }
                }
                JOINT RightFinger4
                {
                  OFFSET 0.6151 -8.0947 -3.564
                  CHANNELS 3 Zrotation Xrotation Yrotation
                  JOINT RightFinger41
                  {
                    OFFSET 0.4882 -2.341 -0.6462
                    CHANNELS 3 Zrotation Xrotation Yrotation
                    JOINT RightFinger42
                    {
                      OFFSET 0.3574 -1.7166 -0.4742
                      CHANNELS 3 Zrotation Xrotation Yrotation
                      End Site
                      {
                        OFFSET 0.4187 -1.5237 -0.3496
                      }
                    }
                  }
                }
                JOINT RightFinger0
                {
                  OFFSET 1.4199 -1.8761 1.4221
                  CHANNELS 3 Zrotation Xrotation Yrotation
                  JOINT RightFinger01
                  {
                    OFFSET 1.1472 -3.4929 2.6336
                    CHANNELS 3 Zrotation Xrotation Yrotation
                    JOINT RightFinger02
                    {
                      OFFSET 0.8229 -2.3 1.6571
                      CHANNELS 3 Zrotation Xrotation Yrotation
                      End Site
                      {
                        OFFSET 0.5822 -1.6914 1.1582
                      }
                    }
                  }
                }
              }
            }
          }
        }
      }
    }
  }
  JOINT RightHip
  {
    OFFSET -9.412 3.9771 -0.7758
    CHANNELS 3 Zrotation Xrotation Yrotation
    JOINT RightKnee
    {
      OFFSET -0.7531 -40.938 0
      CHANNELS 3 Zrotation Xrotation Yrotation
      JOINT RightAnkle
      {
        OFFSET 0 -40.1986 0
        CHANNELS 3 Zrotation Xrotation Yrotation
        JOINT RightToe
        {
          OFFSET 0 -4.4182 9.239
          CHANNELS 3 Zrotation Xrotation Yrotation
          End Site
          {
            OFFSET 0 0 6.1981
          }
        }
      }
    }
  }
  JOINT LeftHip
  {
    OFFSET 9.4119 3.9773 -0.7758
    CHANNELS 3 Zrotation Xrotation Yrotation
    JOINT LeftKnee
    {
      OFFSET 0.7532 -40.9383 0
      CHANNELS 3 Zrotation Xrotation Yrotation
      JOINT LeftAnkle
      {
        OFFSET 0 -40.1986 0
        CHANNELS 3 Zrotation Xrotation Yrotation
        JOINT LeftToe
        {
          OFFSET 0 -4.4182 9.239
          CHANNELS 3 Zrotation Xrotation Yrotation
          End Site
          {
            OFFSET 0 0 6.1981
          }
        }
      }
    }
  }
}
MOTION
Frames:	4
Frame Time:	0.0333333
-0.616623 15.2748 -29.5471 -0.00102351 -35.8013 179.998 -0.00622692 -2.14279 0.146396 -0.00697776 -4.28558 0.292866 -0.00697782 -4.28558 0.292866 2.50539e-006 30.5962 -4.36223e-006 14.8772 5.71917 -1.52952 -24.9971 26.7979 -40.2164 49.1149 -8.73838 25.5939 -0.453611 -32.6037 1.5668 -16.5241 -2.03659 -0.340737 8.07561e-007 1.90402e-006 2.95085e-006 2.8741e-006 -3.51453e-006 -7.88514e-006 1.49641e-006 2.49943e-006 -6.61146e-007 8.07561e-007 1.90402e-006 2.95085e-006 -0.0128239 0.00232492 8.11102e-005 -3.27832e-006 2.76437e-006 6.40958e-006 8.07561e-007 1.90402e-006 2.95085e-006 -0.0160475 0.00299421 0.000855014 -3.61948e-006 -2.06314e-007 3.17441e-006 8.07561e-007 1.90402e-006 2.95085e-006 -0.0126158 0.00313048 0.00283769 -1.12739e-005 4.40735e-006 -8.4058e-006 8.07561e-007 1.90402e-006 2.95085e-006 2.8741e-006 -3.51453e-006 -7.88514e-006 1.49641e-006 2.49943e-006 -6.61146e-007 23.5129 26.1823 33.484 -48.854 -11.0197 -22.3849 0.0483252 -32.0183 -2.32132 18.3011 -3.65222 0.0315105 -4.78147e-006 2.82759e-006 -1.35881e-006 3.84121e-007 3.33717e-006 1.48239e-006 7.50071e-007 6.65655e-007 -3.59414e-006 -4.78147e-006 2.82759e-006 -1.35881e-006 0.0129744 0.00231891 -9.24514e-005 2.38542e-015 0 -3.18055e-015 -4.78147e-006 2.82759e-006 -1.35881e-006 0.0163371 0.00303136 -0.000872172 3.97569e-015 0 -0 -4.78147e-006 2.82759e-006 -1.35881e-006 0.0145513 0.0036722 -0.00325004 -3.97569e-015 -2.54444e-014 9.54166e-015 -4.78147e-006 2.82759e-006 -1.35881e-006 3.84121e-007 3.33717e-006 1.48239e-006 7.50071e-007 6.65655e-007 -3.59414e-006 -75.5412 -43.0799 -86.5574 -137.137 28.7223 158.773 33.4584 40.7352 -22.8961 -2.90641e-006 -1.27949e-006 -1.3387e-006 75.5565 -43.0791 86.5637 137.135 28.7212 -158.778 -33.462 40.7421 22.9155 -5.76387e-025 1.03833e-008 3.18055e-015 
-0.616619 15.3566 -29.3857 -0.00101422 -35.5538 179.998 -0.00288197 -1.78841 0.144567 -0.00124762 -3.57687 0.289255 -0.00124753 -3.57685 0.289255 1.42385e-006 30.0908 -2.69712e-006 14.6273 5.62777 -1.49155 -24.2251 25.4782 -40.3818 48.5996 -8.95227 25.4481 -0.767622 -33.2305 1.38124 -16.0283 -1.86847 -0.316656 -3.97569e-015 1.59028e-015 1.27222e-014 2.38542e-015 0 6.36111e-015 -2.38542e-015 1.59028e-015 6.36111e-015 -3.97569e-015 1.59028e-015 1.27222e-014 -0.0128109 0.00232814 8.63781e-005 -0 -1.59028e-014 -0 -3.97569e-015 1.59028e-015 1.27222e-014 -0.0160303 0.00299453 0.00085412 -4.05041e-007 -1.40177e-007 -1.47704e-006 -3.97569e-015 1.59028e-015 1.27222e-014 -0.012661 0.00313883 0.00283924 -1.50093e-006 1.08859e-006 6.57245e-007 -3.97569e-015 1.59028e-015 1.27222e-014 2.38542e-015 0 6.36111e-015 -2.38542e-015 1.59028e-015 6.36111e-015 22.7635 24.887 33.7087 -48.29 -11.2322 -22.1906 0.36058 -32.6737 -2.14323 17.7138 -3.39981 0.0226023 -1.23822e-005 -1.11862e-006 1.76228e-006 -7.95139e-016 3.18055e-015 -3.18055e-015 1.59028e-015 -1.6236e-006 3.18055e-015 -1.23822e-005 -1.11862e-006 1.76228e-006 0.0129534 0.00231939 -8.11963e-005 1.13713e-006 -1.5481e-006 -2.10947e-006 -1.23822e-005 -1.11862e-006 1.76228e-006 0.0163098 0.00302697 -0.000875719 -1.52192e-006 -1.32229e-006 6.26015e-007 -1.23822e-005 -1.11862e-006 1.76228e-006 0.0146112 0.00367742 -0.00326756 -2.88272e-006 1.22326e-006 -7.07086e-006 -1.23822e-005 -1.11862e-006 1.76228e-006 -7.95139e-016 3.18055e-015 -3.18055e-015 1.59028e-015 -1.6236e-006 3.18055e-015 -75.6975 -43.2519 -86.6679 -137.154 28.7143 158.786 33.6691 40.9833 -23.1761 1.7133e-008 -2.79356e-006 -1.72987e-006 75.7117 -43.2515 86.6735 137.153 28.7132 -158.79 -33.6728 40.9898 23.1944 -1.59028e-015 1.59028e-014 -6.36111e-015 
-0.616614 15.4304 -29.2405 -0.00100593 -35.3315 179.998 9.27179e-005 -1.46908 0.142885 0.00385355 -2.9382 0.285915 0.00385353 -2.9382 0.285915 4.69779e-006 29.636 -9.3346e-006 14.4026 5.54545 -1.45778 -23.539 24.2845 -40.5104 48.1362 -9.14452 25.3152 -1.05531 -33.7928 1.20927 -15.582 -1.71694 -0.296389 -7.81993e-006 -1.28592e-006 3.70245e-008 3.71116e-006 2.51356e-006 3.40306e-006 -1.50512e-006 9.22288e-007 6.53928e-007 -7.81993e-006 -1.28592e-006 3.70245e-008 -0.012837 0.00233365 9.51235e-005 -8.12745e-007 3.43335e-006 -2.95664e-006 -7.81993e-006 -1.28592e-006 3.70245e-008 -0.016084 0.00300086 0.00085764 -3.70245e-006 3.4795e-006 4.9182e-006 -7.81993e-006 -1.28592e-006 3.70245e-008 -0.0126322 0.00313499 0.00284542 -9.7314e-006 5.86625e-007 -7.87931e-007 -7.81993e-006 -1.28592e-006 3.70245e-008 3.71116e-006 2.51356e-006 3.40306e-006 -1.50512e-006 9.22288e-007 6.53928e-007 22.0985 23.7151 33.8913 -47.7772 -11.4175 -22.0128 0.644186 -33.2686 -1.97786 17.1853 -3.17244 0.016236 -7.53748e-007 -3.11199e-006 3.59165e-006 -3.85797e-007 1.38677e-007 -1.48425e-006 3.85797e-007 -1.38677e-007 1.48425e-006 -7.53748e-007 -3.11199e-006 3.59165e-006 0.0129551 0.00232115 -8.26622e-005 -2.38542e-015 1.89804e-006 -0 -7.53748e-007 -3.11199e-006 3.59165e-006 0.0163457 0.0030432 -0.000879388 -7.95139e-016 3.18055e-015 3.18055e-015 -7.53748e-007 -3.11199e-006 3.59165e-006 0.0145562 0.00367838 -0.00325705 -1.52527e-006 -8.3551e-008 6.23026e-007 -7.53748e-007 -3.11199e-006 3.59165e-006 -3.85797e-007 1.38677e-007 -1.48425e-006 3.85797e-007 -1.38677e-007 1.48425e-006 -75.8389 -43.4065 -86.7681 -137.17 28.7071 158.797 33.8607 41.206 -23.43 -7.37663e-007 -1.07784e-008 -1.43883e-006 75.8526 -43.406 86.7736 137.168 28.7058 -158.801 -33.8643 41.2122 23.4473 7.37712e-007 -1.08735e-008 1.439e-006 
-0.61661 15.5044 -29.0953 -0.000997677 -35.1092 179.998 0.00304217 -1.14943 0.141171 0.00892039 -2.29884 0.28249 0.00892038 -2.29885 0.28249 -1.08195e-006 29.1806 2.3922e-006 14.178 5.46297 -1.42433 -22.8606 23.0866 -40.6225 47.6705 -9.3348 25.1804 -1.34637 -34.356 1.03263 -15.1357 -1.56524 -0.277286 7.95139e-016 4.77083e-015 -3.18055e-015 1.78147e-006 -1.77088e-006 2.58166e-006 -4.77083e-015 1.89384e-006 -9.54166e-015 7.95139e-016 4.77083e-015 -3.18055e-015 -0.0128601 0.00233236 9.17225e-005 -4.52736e-006 3.14197e-006 1.95143e-006 7.95139e-016 4.77083e-015 -3.18055e-015 -0.0160751 0.00300168 0.000871352 -8.1495e-007 5.61687e-006 -2.95899e-006 7.95139e-016 4.77083e-015 -3.18055e-015 -0.0125596 0.00311593 0.00282055 -3.97569e-015 -4.77083e-015 -3.18055e-015 7.95139e-016 4.77083e-015 -3.18055e-015 1.78147e-006 -1.77088e-006 2.58166e-006 -4.77083e-015 1.89384e-006 -9.54166e-015 21.4418 22.5385 34.0581 -47.2654 -11.6035 -21.8336 0.933017 -33.8603 -1.80771 16.6565 -2.94493 0.01203 -9.41749e-007 1.3221e-006 -6.21688e-006 3.18055e-015 -6.36111e-015 6.36111e-015 1.16249e-005 5.33144e-007 -4.68485e-006 -9.41749e-007 1.3221e-006 -6.21688e-006 0.012915 0.00230836 -8.98764e-005 1.27675e-005 2.66074e-007 -6.78954e-006 -9.41749e-007 1.3221e-006 -6.21688e-006 0.0163598 0.00303922 -0.000886645 1.04829e-005 5.62899e-006 -2.5791e-006 -9.41749e-007 1.3221e-006 -6.21688e-006 0.0146066 0.0036842 -0.00326898 1.0483e-005 -5.43701e-007 -2.57899e-006 -9.41749e-007 1.3221e-006 -6.21688e-006 3.18055e-015 -6.36111e-015 6.36111e-015 1.16249e-005 5.33144e-007 -4.68485e-006 -75.9812 -43.5611 -86.8693 -137.186 28.6999 158.808 34.0545 41.4282 -23.686 -7.25975e-006 1.82493e-006 6.16684e-007 75.9938 -43.5611 86.8741 137.184 28.6988 -158.812 -34.0582 41.4342 23.7023 4.77083e-015 3.18055e-015 6.36111e-015 
